<?xml version="1.0" encoding="UTF-8" standalone="no"?>
<!-- Created with Inkscape (http://www.inkscape.org/) -->

<svg
   width="244.45006mm"
   height="116.42106mm"
   viewBox="0 0 244.45005 116.42106"
   version="1.1"
   id="svg1"
   inkscape:version="1.3.2 (091e20e, 2023-11-25, custom)"
   sodipodi:docname="cardsagainst.svg"
   xmlns:inkscape="http://www.inkscape.org/namespaces/inkscape"
   xmlns:sodipodi="http://sodipodi.sourceforge.net/DTD/sodipodi-0.dtd"
   xmlns="http://www.w3.org/2000/svg"
   xmlns:svg="http://www.w3.org/2000/svg">
  <sodipodi:namedview
     id="namedview1"
     pagecolor="#000000"
     bordercolor="#000000"
     borderopacity="0.25"
     inkscape:showpageshadow="2"
     inkscape:pageopacity="0.0"
     inkscape:pagecheckerboard="0"
     inkscape:deskcolor="#d1d1d1"
     inkscape:document-units="mm"
     inkscape:zoom="1.6035354"
     inkscape:cx="297.77953"
     inkscape:cy="380.40945"
     inkscape:window-width="3840"
     inkscape:window-height="2054"
     inkscape:window-x="3829"
     inkscape:window-y="-11"
     inkscape:window-maximized="1"
     inkscape:current-layer="layer1" />
  <defs
     id="defs1" />
  <g
     inkscape:label="Layer 1"
     inkscape:groupmode="layer"
     id="layer1"
     transform="translate(-26.244014,-47.81979)">
    <g
       id="text1"
       style="font-weight:bold;font-size:40.9191px;line-height:0.9;font-family:'Segoe UI';-inkscape-font-specification:'Segoe UI Bold';fill:#ffffff;stroke:#000000;stroke-width:0"
       aria-label="Cards&#10;Against&#10;The Internet">
      <path
         style="font-family:Roboto;-inkscape-font-specification:'Roboto Bold'"
         d="m 55.611798,73.643774 h 5.974029 q -0.17982,2.937064 -1.618382,5.214788 -1.418582,2.277723 -3.976026,3.556445 -2.537464,1.278722 -6.113889,1.278722 -2.797205,0 -5.014988,-0.959041 -2.217783,-0.979022 -3.796206,-2.797205 -1.558442,-1.818182 -2.377623,-4.395606 -0.819181,-2.577424 -0.819181,-5.774229 v -2.017983 q 0,-3.196805 0.839161,-5.774229 0.859141,-2.597404 2.437563,-4.415586 1.598403,-1.818183 3.816186,-2.797205 2.217784,-0.979021 4.955048,-0.979021 3.636365,0 6.133869,1.318682 2.517484,1.318682 3.896106,3.636365 1.398602,2.317684 1.678322,5.274728 h -5.994009 q -0.0999,-1.758242 -0.699301,-2.977024 -0.599401,-1.238762 -1.818182,-1.858143 -1.198802,-0.639361 -3.196805,-0.639361 -1.498503,0 -2.617384,0.559441 -1.118882,0.559441 -1.878123,1.698302 -0.759241,1.138862 -1.138862,2.877125 -0.35964,1.718282 -0.35964,4.035966 v 2.057943 q 0,2.257743 0.33966,3.976026 0.339661,1.698303 1.038962,2.877124 0.719281,1.158842 1.838163,1.758243 1.138861,0.579421 2.737264,0.579421 1.878122,0 3.096904,-0.599401 1.218782,-0.599401 1.858143,-1.778223 0.659341,-1.178821 0.779221,-2.937064 z m 21.218793,4.775227 v -9.630374 q 0,-1.038962 -0.339661,-1.778223 -0.33966,-0.759241 -1.058941,-1.178822 -0.699301,-0.419581 -1.818183,-0.419581 -0.959041,0 -1.658342,0.339661 -0.699301,0.31968 -1.078922,0.939061 -0.379621,0.599401 -0.379621,1.418583 h -5.754248 q 0,-1.378623 0.639361,-2.617384 0.639361,-1.238762 1.858142,-2.177824 1.218782,-0.959041 2.897105,-1.498502 1.698302,-0.539461 3.796206,-0.539461 2.517483,0 4.475526,0.839161 1.958043,0.839162 3.076925,2.517484 1.138862,1.678323 1.138862,4.195807 v 9.250754 q 0,1.778222 0.21978,2.917084 0.21978,1.118882 0.639361,1.958043 v 0.33966 h -5.814189 q -0.41958,-0.879121 -0.639361,-2.197803 -0.1998,-1.338662 -0.1998,-2.677324 z m 0.759241,-8.291712 0.03996,3.256744 h -3.216785 q -1.138861,0 -1.978023,0.259741 -0.839161,0.25974 -1.378622,0.739261 -0.539461,0.459541 -0.799201,1.078922 -0.23976,0.619381 -0.23976,1.358642 0,0.739261 0.33966,1.338662 0.339661,0.579421 0.979022,0.919081 0.639361,0.319681 1.498502,0.319681 1.298702,0 2.257743,-0.519481 0.959042,-0.519481 1.478523,-1.278722 0.53946,-0.759241 0.55944,-1.438562 l 1.518483,2.437563 q -0.319681,0.819182 -0.879122,1.698303 -0.53946,0.879121 -1.378622,1.658342 -0.839161,0.759242 -2.017983,1.258742 -1.178822,0.479521 -2.797204,0.479521 -2.057943,0 -3.736266,-0.819181 -1.658342,-0.839161 -2.637364,-2.297704 -0.959041,-1.478522 -0.959041,-3.356645 0,-1.698302 0.639361,-3.016984 0.639361,-1.318682 1.878123,-2.217784 1.258742,-0.919081 3.136864,-1.378622 1.878123,-0.47952 4.355647,-0.47952 z M 92.814617,66.391023 V 83.294128 H 87.060369 V 61.675736 h 5.414588 z m 6.51349,-4.855147 -0.0999,5.334668 q -0.419581,-0.05994 -1.018982,-0.0999 -0.579421,-0.05994 -1.058941,-0.05994 -1.218782,0 -2.117883,0.319681 -0.879122,0.2997 -1.478523,0.899101 -0.579421,0.599401 -0.879121,1.458542 -0.27972,0.859142 -0.319681,1.958043 l -1.158841,-0.35964 q 0,-2.097903 0.41958,-3.856146 0.419581,-1.778223 1.218782,-3.096905 0.819181,-1.318682 1.998003,-2.037963 1.178822,-0.719281 2.697304,-0.719281 0.479521,0 0.979022,0.07992 0.499501,0.05994 0.819181,0.179821 z M 114.43301,78.578841 V 52.604802 h 5.79421 v 30.689326 h -5.21479 z m -13.66634,-5.834168 v -0.419581 q 0,-2.477524 0.55944,-4.495507 0.55944,-2.037963 1.63836,-3.496505 1.07892,-1.458542 2.65734,-2.257744 1.57843,-0.799201 3.59641,-0.799201 1.8981,0 3.31668,0.799201 1.43857,0.799202 2.43757,2.277724 1.01898,1.458542 1.63836,3.456545 0.61938,1.978023 0.8991,4.335667 v 0.919081 q -0.27972,2.257743 -0.8991,4.195806 -0.61938,1.938063 -1.63836,3.396605 -0.999,1.438563 -2.43757,2.237764 -1.43856,0.799201 -3.35664,0.799201 -2.01798,0 -3.59641,-0.819181 -1.55844,-0.819181 -2.63736,-2.297704 -1.05894,-1.478522 -1.61838,-3.476525 -0.55944,-1.998003 -0.55944,-4.355646 z m 5.75425,-0.419581 v 0.419581 q 0,1.338662 0.1998,2.497503 0.21978,1.158842 0.6993,2.057943 0.4995,0.879122 1.27872,1.378622 0.7992,0.479521 1.93806,0.479521 1.47852,0 2.43757,-0.659341 0.95904,-0.679321 1.45854,-1.858143 0.51948,-1.178821 0.5994,-2.717284 V 71.30611 q -0.0599,-1.258742 -0.35964,-2.257743 -0.27972,-1.018982 -0.83916,-1.738263 -0.53946,-0.719281 -1.35864,-1.118881 -0.79921,-0.399601 -1.89811,-0.399601 -1.11888,0 -1.91808,0.519481 -0.7992,0.499501 -1.2987,1.378622 -0.47952,0.879121 -0.71928,2.077923 -0.21978,1.178822 -0.21978,2.557444 z m 29.87014,4.995007 q 0,-0.619381 -0.35964,-1.118881 -0.35964,-0.499501 -1.33866,-0.919082 -0.95905,-0.43956 -2.77723,-0.799201 -1.63836,-0.35964 -3.05694,-0.899101 -1.39861,-0.559441 -2.43757,-1.338662 -1.01898,-0.779221 -1.5984,-1.838163 -0.57942,-1.078922 -0.57942,-2.457544 0,-1.358642 0.57942,-2.557444 0.5994,-1.198801 1.6983,-2.117883 1.11889,-0.939061 2.71729,-1.458542 1.61838,-0.539461 3.63636,-0.539461 2.81719,0 4.83517,0.899102 2.03796,0.899101 3.11688,2.477523 1.09891,1.558443 1.09891,3.556446 h -5.75425 q 0,-0.839162 -0.35964,-1.498503 -0.33966,-0.679321 -1.07892,-1.058941 -0.71929,-0.399601 -1.87813,-0.399601 -0.95904,0 -1.65834,0.339661 -0.6993,0.31968 -1.07892,0.879121 -0.35964,0.539461 -0.35964,1.198802 0,0.499501 0.1998,0.899101 0.21978,0.379621 0.6993,0.699301 0.47952,0.319681 1.23876,0.599401 0.77922,0.259741 1.91808,0.479521 2.33767,0.479521 4.17583,1.258742 1.83816,0.759241 2.91709,2.077923 1.07892,1.298702 1.07892,3.416585 0,1.438562 -0.63936,2.637364 -0.63937,1.198802 -1.83817,2.097903 -1.1988,0.879122 -2.87712,1.378622 -1.65834,0.479521 -3.73627,0.479521 -3.01698,0 -5.11488,-1.078922 -2.07793,-1.078921 -3.15685,-2.737264 -1.05894,-1.678322 -1.05894,-3.436565 h 5.45455 q 0.04,1.178822 0.5994,1.898103 0.57942,0.719281 1.45854,1.038962 0.8991,0.31968 1.93806,0.31968 1.11888,0 1.85815,-0.2997 0.73926,-0.319681 1.11888,-0.839162 0.3996,-0.539461 0.3996,-1.238762 z"
         id="path3" />
      <path
         style="font-family:Roboto;-inkscape-font-specification:'Roboto Bold'"
         d="m 50.576831,97.05927 -7.912092,24.1159 h -6.37363 L 47.100305,92.084243 h 4.055947 z m 6.57343,24.1159 -7.932072,-24.1159 -0.639361,-4.975027 h 4.095906 L 63.54387,121.17517 Z M 56.79062,110.34599 v 4.69531 H 41.425977 v -4.69531 z M 79.567854,99.556774 h 5.214788 v 20.899116 q 0,2.95704 -1.318682,5.01498 -1.298702,2.07793 -3.636365,3.13687 -2.337664,1.07892 -5.434569,1.07892 -1.358642,0 -2.877124,-0.35964 -1.498502,-0.35964 -2.877124,-1.11888 -1.358642,-0.75924 -2.277724,-1.91809 l 2.537464,-3.3966 q 0.999002,1.15884 2.317684,1.7982 1.318682,0.65934 2.917084,0.65934 1.558442,0 2.637364,-0.57942 1.078922,-0.55944 1.658343,-1.65834 0.57942,-1.07892 0.57942,-2.61738 V 104.55178 Z M 65.022392,110.62571 v -0.41958 q 0,-2.47752 0.599401,-4.49551 0.619381,-2.03796 1.738263,-3.4965 1.138862,-1.45854 2.757244,-2.257745 1.618382,-0.799201 3.656345,-0.799201 2.157844,0 3.616386,0.799201 1.458542,0.799205 2.397604,2.277725 0.939061,1.45854 1.458542,3.45654 0.539461,1.97803 0.839161,4.33567 v 0.91908 q -0.2997,2.25774 -0.899101,4.19581 -0.599401,1.93806 -1.578423,3.3966 -0.979021,1.43857 -2.437563,2.23777 -1.438563,0.7992 -3.436566,0.7992 -1.998003,0 -3.616385,-0.81918 -1.598402,-0.81919 -2.737264,-2.29771 -1.138862,-1.47852 -1.758243,-3.47652 -0.599401,-1.99801 -0.599401,-4.35565 z m 5.754249,-0.41958 v 0.41958 q 0,1.33866 0.25974,2.4975 0.259741,1.15885 0.799202,2.05795 0.55944,0.87912 1.378622,1.37862 0.839161,0.47952 1.978023,0.47952 1.578422,0 2.577424,-0.65934 0.999001,-0.67932 1.498502,-1.85814 0.499501,-1.17882 0.579421,-2.71729 v -2.61738 q -0.03996,-1.25874 -0.339661,-2.25774 -0.2997,-1.01899 -0.839161,-1.73827 -0.539461,-0.71928 -1.398602,-1.11888 -0.859142,-0.3996 -2.037963,-0.3996 -1.138862,0 -1.978023,0.51948 -0.819182,0.4995 -1.378622,1.37862 -0.539461,0.87912 -0.819182,2.07793 -0.27972,1.17882 -0.27972,2.55744 z m 30.149869,6.09391 v -9.63038 q 0,-1.03896 -0.33966,-1.77822 -0.33967,-0.75924 -1.058946,-1.17882 -0.699301,-0.41958 -1.818183,-0.41958 -0.959042,0 -1.658343,0.33966 -0.699301,0.31968 -1.078921,0.93906 -0.379621,0.5994 -0.379621,1.41858 h -5.754248 q 0,-1.37862 0.639361,-2.61738 0.63936,-1.23876 1.858142,-2.17782 1.218782,-0.95904 2.897105,-1.498506 1.698302,-0.53946 3.796205,-0.53946 2.517489,0 4.475529,0.839161 1.95804,0.839165 3.07692,2.517485 1.13886,1.67832 1.13886,4.19581 v 9.25075 q 0,1.77822 0.21978,2.91708 0.21979,1.11889 0.63937,1.95805 v 0.33966 h -5.81419 q -0.41958,-0.87912 -0.63936,-2.19781 -0.1998,-1.33866 -0.1998,-2.67732 z m 0.75924,-8.29171 0.04,3.25674 h -3.216788 q -1.138862,0 -1.978023,0.25974 -0.839161,0.25974 -1.378622,0.73926 -0.539461,0.45954 -0.799201,1.07893 -0.23976,0.61938 -0.23976,1.35864 0,0.73926 0.33966,1.33866 0.339661,0.57942 0.979022,0.91908 0.63936,0.31968 1.498502,0.31968 1.298702,0 2.257743,-0.51948 0.959037,-0.51948 1.478527,-1.27872 0.53946,-0.75924 0.55944,-1.43856 l 1.51848,2.43756 q -0.31968,0.81918 -0.87912,1.6983 -0.53946,0.87912 -1.37862,1.65834 -0.839166,0.75925 -2.017988,1.25875 -1.178822,0.47952 -2.797204,0.47952 -2.057943,0 -3.736266,-0.81918 -1.658342,-0.83917 -2.637364,-2.29771 -0.959041,-1.47852 -0.959041,-3.35664 0,-1.6983 0.639361,-3.01699 0.639361,-1.31868 1.878123,-2.21778 1.258741,-0.91908 3.136864,-1.37862 1.878123,-0.47952 4.355647,-0.47952 z m 15.54446,-8.451556 v 21.618396 h -5.77422 V 99.556774 Z m -6.13386,-5.634368 q 0,-1.258742 0.87912,-2.077923 0.87912,-0.819182 2.35764,-0.819182 1.45854,0 2.33766,0.819182 0.8991,0.819181 0.8991,2.077923 0,1.258742 -0.8991,2.077923 -0.87912,0.819181 -2.33766,0.819181 -1.47852,0 -2.35764,-0.819181 -0.87912,-0.819181 -0.87912,-2.077923 z m 16.52347,10.249754 v 17.00301 h -5.75424 V 99.556774 h 5.3946 z m -0.83916,5.43457 h -1.55844 q 0,-2.3976 0.61938,-4.31569 0.61938,-1.93806 1.73826,-3.2967 1.11889,-1.37862 2.65735,-2.097905 1.55844,-0.739261 3.47652,-0.739261 1.51849,0 2.77723,0.43956 1.25874,0.439556 2.15784,1.398606 0.91908,0.95904 1.3986,2.53746 0.4995,1.57842 0.4995,3.85615 v 13.78622 h -5.79421 v -13.8062 q 0,-1.43857 -0.3996,-2.23777 -0.3996,-0.7992 -1.17882,-1.11888 -0.75924,-0.33966 -1.87812,-0.33966 -1.15884,0 -2.01798,0.45954 -0.83916,0.45954 -1.39861,1.27872 -0.53946,0.7992 -0.81918,1.87813 -0.27972,1.07892 -0.27972,2.31768 z m 29.83019,5.59441 q 0,-0.61938 -0.35964,-1.11888 -0.35964,-0.4995 -1.33866,-0.91909 -0.95904,-0.43956 -2.77722,-0.7992 -1.63837,-0.35964 -3.05695,-0.8991 -1.3986,-0.55944 -2.43756,-1.33866 -1.01898,-0.77922 -1.5984,-1.83816 -0.57942,-1.07892 -0.57942,-2.45755 0,-1.35864 0.57942,-2.55744 0.5994,-1.1988 1.6983,-2.11788 1.11888,-0.93906 2.71728,-1.458546 1.61839,-0.53946 3.63637,-0.53946 2.81718,0 4.83517,0.899096 2.03796,0.89911 3.11688,2.47753 1.0989,1.55844 1.0989,3.55644 h -5.75425 q 0,-0.83916 -0.35964,-1.4985 -0.33966,-0.67932 -1.07892,-1.05894 -0.71928,-0.3996 -1.87812,-0.3996 -0.95904,0 -1.65834,0.33966 -0.69931,0.31968 -1.07893,0.87912 -0.35964,0.53946 -0.35964,1.1988 0,0.4995 0.1998,0.8991 0.21978,0.37963 0.6993,0.69931 0.47953,0.31968 1.23877,0.5994 0.77922,0.25974 1.91808,0.47952 2.33766,0.47952 4.17583,1.25874 1.83816,0.75924 2.91708,2.07792 1.07892,1.2987 1.07892,3.41659 0,1.43856 -0.63936,2.63736 -0.63936,1.1988 -1.83816,2.0979 -1.1988,0.87913 -2.87713,1.37863 -1.65834,0.47952 -3.73626,0.47952 -3.01699,0 -5.11489,-1.07892 -2.07792,-1.07893 -3.15684,-2.73727 -1.05895,-1.67832 -1.05895,-3.43656 h 5.45455 q 0.04,1.17882 0.5994,1.8981 0.57942,0.71928 1.45855,1.03896 0.8991,0.31968 1.93806,0.31968 1.11888,0 1.85814,-0.2997 0.73926,-0.31968 1.11888,-0.83916 0.3996,-0.53946 0.3996,-1.23876 z m 19.92009,-15.644366 v 4.075926 h -12.58742 v -4.075926 z m -9.47053,-5.334668 h 5.75425 v 20.439574 q 0,0.93906 0.23976,1.43856 0.25974,0.4995 0.75924,0.6993 0.4995,0.17982 1.25874,0.17982 0.53946,0 0.95904,-0.04 0.43956,-0.0599 0.73926,-0.11988 l 0.02,4.23577 q -0.73926,0.23976 -1.5984,0.37962 -0.85914,0.13986 -1.8981,0.13986 -1.89811,0 -3.31669,-0.61938 -1.3986,-0.63936 -2.15784,-2.03797 -0.75924,-1.3986 -0.75924,-3.67632 z"
         id="path4" />
      <path
         style="font-family:Roboto;-inkscape-font-specification:'Roboto Bold'"
         d="m 51.755652,129.96528 v 29.09093 h -5.974029 v -29.09093 z m 8.951054,0 v 4.69531 H 36.97043 v -4.69531 z m 8.651353,-1.5984 v 30.68933 H 63.60381 v -30.68933 z m -0.819181,19.12089 h -1.578423 q 0.01998,-2.25775 0.599401,-4.15585 0.579421,-1.91808 1.658343,-3.31668 1.078921,-1.41859 2.577424,-2.19781 1.518482,-0.77922 3.356645,-0.77922 1.598402,0 2.897104,0.45954 1.318682,0.43956 2.257743,1.43856 0.959042,0.97903 1.478523,2.57743 0.51948,1.5984 0.51948,3.87612 v 13.66635 H 76.51091 V 145.3499 q 0,-1.43856 -0.419581,-2.25774 -0.399601,-0.83916 -1.178822,-1.17882 -0.759241,-0.35964 -1.878123,-0.35964 -1.238761,0 -2.117883,0.45954 -0.859141,0.45954 -1.378622,1.27872 -0.519481,0.7992 -0.759241,1.87812 -0.23976,1.07893 -0.23976,2.31769 z m 28.071941,11.96804 q -2.517484,0 -4.515487,-0.79921 -1.998003,-0.81918 -3.396605,-2.25774 -1.378622,-1.43856 -2.117883,-3.33666 -0.739262,-1.91809 -0.739262,-4.07593 v -0.7992 q 0,-2.45754 0.699302,-4.49551 0.699301,-2.03796 1.998003,-3.53646 1.318682,-1.49851 3.196804,-2.29771 1.878123,-0.81918 4.235767,-0.81918 2.297703,0 4.075922,0.75924 1.77823,0.75924 2.97703,2.15785 1.21878,1.3986 1.83816,3.35664 0.61938,1.93806 0.61938,4.31569 v 2.3976 H 88.299126 v -3.83616 h 11.528478 v -0.43956 q 0,-1.19881 -0.439561,-2.13787 -0.419581,-0.95904 -1.278722,-1.51848 -0.859141,-0.55944 -2.197803,-0.55944 -1.138862,0 -1.958043,0.4995 -0.819182,0.4995 -1.338662,1.3986 -0.499501,0.8991 -0.759241,2.11788 -0.239761,1.19881 -0.239761,2.63737 v 0.7992 q 0,1.2987 0.359641,2.3976 0.37962,1.09891 1.058941,1.89811 0.699301,0.7992 1.678323,1.23876 0.999001,0.43956 2.257743,0.43956 1.558443,0 2.897105,-0.5994 1.358646,-0.61938 2.337666,-1.85814 l 2.7972,3.03696 q -0.67932,0.97902 -1.85814,1.87812 -1.15884,0.8991 -2.79721,1.47852 -1.638358,0.55945 -3.736261,0.55945 z m 29.050971,-29.49053 v 29.09093 h -5.97403 v -29.09093 z m 10.86913,12.08792 v 17.00301 h -5.75425 v -21.6184 h 5.39461 z m -0.83916,5.43457 h -1.55844 q 0,-2.39761 0.61938,-4.31569 0.61938,-1.93806 1.73826,-3.2967 1.11888,-1.37863 2.65734,-2.09791 1.55844,-0.73926 3.47653,-0.73926 1.51848,0 2.77722,0.43956 1.25874,0.43956 2.15785,1.3986 0.91908,0.95905 1.3986,2.53747 0.4995,1.57842 0.4995,3.85614 v 13.78623 h -5.79421 V 145.25 q 0,-1.43856 -0.3996,-2.23776 -0.3996,-0.7992 -1.17882,-1.11888 -0.75924,-0.33966 -1.87813,-0.33966 -1.15884,0 -2.01798,0.45954 -0.83916,0.45954 -1.3986,1.27872 -0.53946,0.7992 -0.81918,1.87812 -0.27972,1.07893 -0.27972,2.31769 z m 28.73128,-10.04996 v 4.07593 h -12.58742 v -4.07593 z m -9.47054,-5.33467 h 5.75425 v 20.43958 q 0,0.93906 0.23976,1.43856 0.25974,0.4995 0.75924,0.6993 0.49951,0.17982 1.25875,0.17982 0.53946,0 0.95904,-0.04 0.43956,-0.0599 0.73926,-0.11988 l 0.02,4.23577 q -0.73926,0.23976 -1.5984,0.37962 -0.85914,0.13986 -1.89811,0.13986 -1.8981,0 -3.31668,-0.61939 -1.3986,-0.63936 -2.15784,-2.03796 -0.75925,-1.3986 -0.75925,-3.67632 z m 22.67734,27.35267 q -2.51748,0 -4.51549,-0.79921 -1.998,-0.81918 -3.3966,-2.25774 -1.37863,-1.43856 -2.11789,-3.33666 -0.73926,-1.91809 -0.73926,-4.07593 v -0.7992 q 0,-2.45754 0.6993,-4.49551 0.6993,-2.03796 1.99801,-3.53646 1.31868,-1.49851 3.1968,-2.29771 1.87812,-0.81918 4.23577,-0.81918 2.2977,0 4.07592,0.75924 1.77823,0.75924 2.97703,2.15785 1.21878,1.3986 1.83816,3.35664 0.61938,1.93806 0.61938,4.31569 v 2.3976 h -17.18282 v -3.83616 h 11.52847 v -0.43956 q 0,-1.19881 -0.43956,-2.13787 -0.41958,-0.95904 -1.27872,-1.51848 -0.85914,-0.55944 -2.1978,-0.55944 -1.13886,0 -1.95805,0.4995 -0.81918,0.4995 -1.33866,1.3986 -0.4995,0.8991 -0.75924,2.11788 -0.23976,1.19881 -0.23976,2.63737 v 0.7992 q 0,1.2987 0.35964,2.3976 0.37962,1.09891 1.05894,1.89811 0.6993,0.7992 1.67833,1.23876 0.999,0.43956 2.25774,0.43956 1.55844,0 2.8971,-0.5994 1.35865,-0.61938 2.33767,-1.85814 l 2.7972,3.03696 q -0.67932,0.97902 -1.85814,1.87812 -1.15884,0.8991 -2.79721,1.47852 -1.63836,0.55945 -3.73626,0.55945 z m 17.90211,-17.30271 v 16.90311 h -5.75425 v -21.6184 h 5.41459 z m 6.51349,-4.85515 -0.0999,5.33467 q -0.41958,-0.0599 -1.01898,-0.0999 -0.57942,-0.0599 -1.05895,-0.0599 -1.21878,0 -2.11788,0.31968 -0.87912,0.2997 -1.47852,0.8991 -0.57942,0.5994 -0.87912,1.45854 -0.27972,0.85915 -0.31968,1.95805 l -1.15884,-0.35964 q 0,-2.09791 0.41958,-3.85615 0.41958,-1.77822 1.21878,-3.0969 0.81918,-1.31869 1.998,-2.03797 1.17882,-0.71928 2.69731,-0.71928 0.47952,0 0.97902,0.0799 0.4995,0.0599 0.81918,0.17982 z m 8.35166,4.75525 v 17.00301 h -5.75425 v -21.6184 h 5.39461 z m -0.83916,5.43457 h -1.55844 q 0,-2.39761 0.61938,-4.31569 0.61938,-1.93806 1.73826,-3.2967 1.11888,-1.37863 2.65734,-2.09791 1.55845,-0.73926 3.47653,-0.73926 1.51848,0 2.77722,0.43956 1.25874,0.43956 2.15785,1.3986 0.91908,0.95905 1.3986,2.53747 0.4995,1.57842 0.4995,3.85614 v 13.78623 h -5.79421 V 145.25 q 0,-1.43856 -0.3996,-2.23776 -0.3996,-0.7992 -1.17882,-1.11888 -0.75924,-0.33966 -1.87813,-0.33966 -1.15884,0 -2.01798,0.45954 -0.83916,0.45954 -1.3986,1.27872 -0.53946,0.7992 -0.81918,1.87812 -0.27972,1.07893 -0.27972,2.31769 z m 28.09192,11.96804 q -2.51749,0 -4.51549,-0.79921 -1.998,-0.81918 -3.3966,-2.25774 -1.37863,-1.43856 -2.11789,-3.33666 -0.73926,-1.91809 -0.73926,-4.07593 v -0.7992 q 0,-2.45754 0.6993,-4.49551 0.6993,-2.03796 1.99801,-3.53646 1.31868,-1.49851 3.1968,-2.29771 1.87812,-0.81918 4.23577,-0.81918 2.2977,0 4.07592,0.75924 1.77823,0.75924 2.97703,2.15785 1.21878,1.3986 1.83816,3.35664 0.61938,1.93806 0.61938,4.31569 v 2.3976 h -17.18282 v -3.83616 h 11.52847 v -0.43956 q 0,-1.19881 -0.43956,-2.13787 -0.41958,-0.95904 -1.27872,-1.51848 -0.85914,-0.55944 -2.1978,-0.55944 -1.13886,0 -1.95805,0.4995 -0.81918,0.4995 -1.33866,1.3986 -0.4995,0.8991 -0.75924,2.11788 -0.23976,1.19881 -0.23976,2.63737 v 0.7992 q 0,1.2987 0.35964,2.3976 0.37962,1.09891 1.05894,1.89811 0.6993,0.7992 1.67833,1.23876 0.999,0.43956 2.25774,0.43956 1.55844,0 2.8971,-0.5994 1.35865,-0.61938 2.33767,-1.85814 l 2.7972,3.03696 q -0.67932,0.97902 -1.85814,1.87812 -1.15884,0.8991 -2.79721,1.47852 -1.63836,0.55945 -3.73626,0.55945 z m 22.73727,-22.018 v 4.07593 h -12.58741 v -4.07593 z m -9.47053,-5.33467 h 5.75425 v 20.43958 q 0,0.93906 0.23976,1.43856 0.25974,0.4995 0.75924,0.6993 0.4995,0.17982 1.25874,0.17982 0.53946,0 0.95904,-0.04 0.43956,-0.0599 0.73927,-0.11988 l 0.02,4.23577 q -0.73927,0.23976 -1.59841,0.37962 -0.85914,0.13986 -1.8981,0.13986 -1.8981,0 -3.31668,-0.61939 -1.39861,-0.63936 -2.15785,-2.03796 -0.75924,-1.3986 -0.75924,-3.67632 z"
         id="path5" />
    </g>
  </g>
</svg>
