<?xml version="1.0" encoding="UTF-8" standalone="no"?>
<!-- Created with Inkscape (http://www.inkscape.org/) -->

<svg
   width="474.66037mm"
   height="118.86069mm"
   viewBox="0 0 474.66037 118.86069"
   version="1.1"
   id="svg1"
   inkscape:version="1.3.2 (091e20e, 2023-11-25, custom)"
   sodipodi:docname="wordmark.svg"
   xmlns:inkscape="http://www.inkscape.org/namespaces/inkscape"
   xmlns:sodipodi="http://sodipodi.sourceforge.net/DTD/sodipodi-0.dtd"
   xmlns="http://www.w3.org/2000/svg"
   xmlns:svg="http://www.w3.org/2000/svg">
  <sodipodi:namedview
     id="namedview1"
     pagecolor="#000000"
     bordercolor="#000000"
     borderopacity="0.25"
     inkscape:showpageshadow="2"
     inkscape:pageopacity="0.0"
     inkscape:pagecheckerboard="0"
     inkscape:deskcolor="#d1d1d1"
     inkscape:document-units="mm"
     inkscape:zoom="0.58961278"
     inkscape:cx="726.74816"
     inkscape:cy="566.47348"
     inkscape:window-width="3840"
     inkscape:window-height="2126"
     inkscape:window-x="-11"
     inkscape:window-y="-11"
     inkscape:window-maximized="1"
     inkscape:current-layer="layer1" />
  <defs
     id="defs1" />
  <g
     inkscape:label="Layer 1"
     inkscape:groupmode="layer"
     id="layer1"
     transform="translate(134.67291,-1.8520784)">
    <text
       xml:space="preserve"
       style="font-style:normal;font-variant:normal;font-weight:normal;font-stretch:normal;font-size:119.27px;font-family:'Asap Extra';-inkscape-font-specification:'Asap Extra, Normal';font-variant-ligatures:normal;font-variant-caps:normal;font-variant-numeric:normal;font-variant-east-asian:normal;fill:#ffffff;fill-opacity:1;stroke:none;stroke-width:1.18708;stroke-opacity:1"
       x="-134.22803"
       y="100.93391"
       id="text1-5"><tspan
         sodipodi:role="line"
         id="tspan1-2"
         style="font-style:normal;font-variant:normal;font-weight:normal;font-stretch:normal;font-size:119.27px;font-family:Constantia;-inkscape-font-specification:'Constantia, Normal';font-variant-ligatures:normal;font-variant-caps:normal;font-variant-numeric:normal;font-variant-east-asian:normal;fill:#ffffff;fill-opacity:1;stroke:none;stroke-width:1.18708;stroke-opacity:1"
         x="-134.22803"
         y="100.93391">SONATA</tspan></text>
    <path
       style="fill:#ffffff;stroke-width:0.258"
       d="m -34.59348,98.33901 c -3.2342,-1.94383 -5.00297,-4.89133 -5.03172,-8.38503 -0.0128,-1.54077 0.14219,-2.35682 0.87231,-4.59633 0.22848,-0.70082 0.46212,-1.58431 0.51919,-1.96332 0.1033,-0.68556 0.0671,-0.93186 -0.24121,-1.64784 -0.0608,-0.14126 -0.0331,-0.14242 0.37378,-0.0158 0.56795,0.17667 1.43935,0.10575 1.96023,-0.15958 0.62648,-0.31907 0.91618,-0.58121 1.24796,-1.1292 0.26603,-0.43939 0.31724,-0.61728 0.35236,-1.22382 0.0517,-0.89438 -0.12664,-1.47197 -0.63203,-2.04613 -0.73183,-0.83139 -1.77519,-1.19024 -2.73935,-0.94215 -0.45911,0.11814 -0.681,0.0888 -0.44272,-0.0585 0.0442,-0.0274 0.15282,-0.31648 0.24103,-0.64238 0.20547,-0.75907 0.14694,-1.78937 -0.18358,-3.23227 -0.38358,-1.67453 -0.49878,-2.42793 -0.55858,-3.65332 -0.26703,-5.47114 2.59175,-9.71901 8.16342,-12.13007 l 1.1312,-0.48951 V 45.70655 35.38936 l -0.52334,-0.0273 -0.52333,-0.0273 v -0.76911 -0.76909 h -0.55882 c -0.42554,0 -0.5864,0.0377 -0.67441,0.15807 -0.10964,0.15008 -0.12446,0.15008 -0.29027,0 -0.0961,-0.087 -0.26358,-0.15807 -0.37227,-0.15807 -0.17888,0 -0.19761,0.0474 -0.19761,0.5006 v 0.50057 h -0.48132 c -1.54946,0 -2.20468,-1.43896 -1.04835,-2.30228 0.2731,-0.2039 0.99967,-0.35946 1.31236,-0.28099 0.19545,0.0491 0.21731,0.10386 0.21731,0.54527 0,0.44295 0.0191,0.49073 0.19761,0.49073 0.10864,0 0.27622,-0.0712 0.37227,-0.15807 0.16585,-0.15009 0.18053,-0.15009 0.29027,0 0.0877,0.11991 0.24843,0.15807 0.66605,0.15807 h 0.55048 l 0.0367,-1.3425 c 0.0203,-0.73837 0.0692,-1.41417 0.10908,-1.50177 0.0653,-0.14371 0.008,-0.15929 -0.58721,-0.15929 -0.52118,0 -0.68382,0.0332 -0.77515,0.15808 -0.10964,0.15007 -0.12445,0.15007 -0.29026,0 -0.0961,-0.087 -0.26359,-0.15808 -0.37228,-0.15808 -0.17886,0 -0.19762,0.0474 -0.19762,0.5006 v 0.50058 h -0.48131 c -0.56086,0 -1.18879,-0.28035 -1.45891,-0.65139 -0.54382,-0.74698 0.0994,-1.7864 1.19558,-1.93179 0.66703,-0.0885 0.74464,-0.0317 0.74464,0.54505 0,0.44308 0.0192,0.49085 0.19762,0.49085 0.10864,0 0.27622,-0.0711 0.37229,-0.15806 0.16585,-0.15009 0.18051,-0.15009 0.29025,0 0.0931,0.12724 0.25738,0.15806 0.84281,0.15806 h 0.72725 l 0.30942,-0.61222 c 0.17018,-0.33671 0.58638,-0.98178 0.92491,-1.4335 1.42839,-1.90596 1.74774,-3.2775 1.01105,-4.34196 -0.41232,-0.59576 -1.53791,-0.95114 -2.25893,-0.71318 -0.40375,0.13326 -0.91714,0.56407 -1.10494,0.92723 -0.46832,0.90563 0.20238,2.07789 1.18883,2.07789 0.70578,0 1.02288,-0.6716 0.54345,-1.15104 -0.19777,-0.19778 -0.2829,-0.22319 -0.56885,-0.16985 l -0.33626,0.0627 0.22208,-0.23712 c 0.54349,-0.58026 1.33319,-0.47402 1.73044,0.23278 0.26716,0.47536 0.23065,1.18088 -0.084,1.62274 -0.55379,0.77774 -1.95224,0.84631 -2.87682,0.14109 -0.64088,-0.4888 -0.93059,-1.59073 -0.66743,-2.53849 0.13394,-0.48242 0.80241,-1.17304 1.3832,-1.42906 0.70759,-0.3119 1.7549,-0.30384 2.43139,0.0187 0.64049,0.30541 1.06013,0.72452 1.35581,1.35409 0.2027,0.43159 0.23449,0.61976 0.23063,1.36524 -0.006,0.99172 -0.20192,1.61257 -0.84329,2.66046 -0.51787,0.84609 -0.91063,1.64138 -1.18079,2.39096 -0.20702,0.57437 -0.23347,0.8052 -0.26859,2.34369 l -0.039,1.70656 h 0.41845 0.41846 l -0.0232,11.29525 -0.0232,11.29526 -0.40957,0.13452 c -0.22528,0.0739 -0.8713,0.35458 -1.43559,0.62354 -4.05429,1.93238 -6.5817,5.07214 -7.06787,8.7803 -0.10185,0.77732 -0.0634,2.41804 0.0774,3.29252 0.27927,1.73559 0.78395,2.97385 2.10975,5.1765 1.39358,2.31527 1.68499,3.04288 1.6896,4.21869 0.006,1.34116 -0.57136,2.62373 -1.92729,4.2869 -1.70583,2.09233 -2.64483,4.26976 -2.78478,6.45762 -0.20263,3.16734 1.24559,6.483 3.82838,8.76491 0.29748,0.2628 0.51873,0.47783 0.49171,0.47783 -0.027,0 -0.38128,-0.19962 -0.78722,-0.44358 z m 3.344,-3.47009 c -1.68284,-0.26635 -3.03246,-1.31282 -3.64137,-2.82345 -0.30456,-0.75558 -0.35196,-2.14601 -0.10119,-2.97133 0.98841,-3.25408 5.36796,-3.7504 6.7355,-0.76331 0.31172,0.6809 0.32009,1.6561 0.0201,2.34524 -0.39084,0.89789 -1.38934,1.57334 -2.32587,1.57334 -0.52472,0 -1.19164,-0.26297 -1.61738,-0.63772 -0.42622,-0.37518 -0.83196,-1.06491 -0.7789,-1.32411 0.0316,-0.15421 1.32096,-0.7061 1.45544,-0.62298 0.0419,0.0259 0.0761,0.14909 0.0761,0.27378 0,0.54524 0.57739,1.12675 1.11948,1.12747 0.3415,5.1e-4 0.7188,-0.20511 1.00858,-0.54947 0.49936,-0.59346 0.21897,-1.75855 -0.55497,-2.30599 -0.55315,-0.39129 -0.88298,-0.49682 -1.57797,-0.50489 -1.04959,-0.0126 -1.9176,0.59661 -2.44018,1.71147 -0.19638,0.41894 -0.23979,0.64329 -0.23986,1.23963 -6e-5,0.62667 0.0393,0.81061 0.28229,1.31975 0.38151,0.79933 1.04697,1.45212 1.92038,1.88376 0.68332,0.33774 0.72484,0.34615 1.70627,0.34615 0.94346,0 1.04418,-0.0181 1.62257,-0.2921 1.15217,-0.54576 1.90877,-1.60761 2.35509,-3.30528 0.19868,-0.75568 0.2035,-0.9009 0.23615,-7.11983 l 0.0334,-6.3484 -0.34638,-2.7e-4 c -1.17399,-8e-4 -3.14885,-0.55826 -4.21463,-1.18877 -0.89116,-0.5272 -1.06357,-0.65555 -1.65955,-1.23544 -1.52457,-1.48341 -2.34809,-3.19749 -2.61964,-5.45256 -0.45697,-3.79475 1.37328,-6.81298 6.05403,-9.98355 1.12803,-0.76409 2.37264,-1.68158 2.62937,-1.93834 0.13318,-0.13316 0.14702,-1.16307 0.15082,-11.2214 l 0.003,-11.07477 0.73346,0.77364 c 0.87997,0.92816 1.75691,2.08744 2.51303,3.3221 1.86675,3.04825 2.72906,6.24483 2.47367,9.16993 -0.28212,3.23136 -1.88733,6.69046 -4.06653,8.76306 l -0.48134,0.45779 0.0241,3.00085 0.024,3.00085 0.5461,0.0614 c 2.22511,0.25 4.25704,1.72889 4.96723,3.61523 0.65528,1.74052 0.73804,3.57362 0.23552,5.21607 -0.17625,0.57607 -0.80287,1.72285 -1.22147,2.23546 -0.94086,1.15209 -2.71825,2.16527 -4.12617,2.35203 l -0.44672,0.0592 -5.3e-4,5.10797 c -5.2e-4,5.73219 -0.0319,6.7806 -0.23301,7.8726 -0.4415,2.39742 -1.77117,4.03784 -3.77956,4.66292 -0.65329,0.20334 -1.76441,0.28139 -2.4533,0.17237 z m 5.26143,-25.06241 0.0235,-5.35729 -0.25103,0.0598 c -0.91257,0.2173 -1.88997,1.01555 -2.2915,1.87147 -0.20094,0.42834 -0.23495,0.6259 -0.23495,1.36546 0,0.78591 0.0242,0.90848 0.26668,1.34598 0.25372,0.45799 0.82031,1.06318 1.18804,1.26897 0.18085,0.10119 0.22129,0.0326 -1.02623,1.73878 l -0.22193,0.30349 -0.3136,-0.30349 c -0.47372,-0.45845 -1.09699,-1.42029 -1.31726,-2.03282 -0.24487,-0.68088 -0.32677,-1.96412 -0.17068,-2.67456 0.38786,-1.76535 1.89624,-3.25469 3.75662,-3.70918 l 0.61436,-0.1501 v -2.48987 c 0,-1.36944 -0.0191,-2.4899 -0.0426,-2.4899 -0.0871,0 -3.21051,2.14679 -3.78404,2.6008 -1.87338,1.48302 -3.09164,3.58775 -3.36438,5.81243 -0.40748,3.32392 1.73322,6.84969 4.75119,7.82529 0.73797,0.23856 1.71024,0.41138 2.16671,0.38511 l 0.22755,-0.0131 z m 2.64822,4.90811 c 0.49082,-0.1747 1.50832,-0.84579 1.89602,-1.25052 0.71854,-0.75017 1.33765,-2.21215 1.44985,-3.42381 0.10341,-1.11664 -0.21568,-2.45433 -0.79352,-3.32673 -0.91637,-1.38343 -2.05843,-2.16055 -3.41531,-2.32389 l -0.57271,-0.0689 -0.0264,0.64317 c -0.0145,0.35374 -0.0154,2.77938 -0.002,5.39034 l 0.0244,4.74716 0.52178,-0.12281 c 0.28697,-0.0675 0.7001,-0.18636 0.91805,-0.26391 z m -0.88399,-19.40525 c 0.9572,-1.29293 1.58216,-2.69984 1.95685,-4.40521 0.25895,-1.17863 0.23755,-4.04313 -0.0404,-5.43253 -0.23494,-1.17363 -0.70658,-2.59002 -1.17278,-3.52199 -0.33397,-0.66763 -1.21022,-2.05481 -1.29796,-2.05482 -0.0274,0 -0.0502,3.62474 -0.0502,8.05498 0,4.43023 0.0204,8.05456 0.0454,8.05406 0.025,-5.3e-4 0.27658,-0.31303 0.55899,-0.69449 z m 10.52967,34.11504 c 0.0468,-1.22624 -0.20456,-2.24927 -0.96555,-3.93024 -0.69427,-1.53358 -0.83813,-1.95891 -0.8389,-2.4802 -5.1e-4,-0.31569 -0.0203,-0.34131 -0.26398,-0.34131 -0.46171,0 -1.42415,-0.35223 -1.84915,-0.67674 -0.22615,-0.17267 -0.56623,-0.54755 -0.75573,-0.83307 -1.27353,-1.91864 -0.70543,-4.21051 1.29068,-5.20717 0.29204,-0.1458 0.6436,-0.29227 0.78126,-0.32545 0.2292,-0.0553 0.25036,-0.0967 0.25085,-0.49093 8.1e-4,-0.86435 0.28595,-2.28526 0.7794,-3.88775 0.40167,-1.30442 0.52449,-1.85339 0.60057,-2.68422 0.12093,-1.32056 -0.008,-2.76082 -0.36837,-4.14351 -0.14385,-0.55064 -0.28739,-1.10357 -0.31895,-1.22873 -0.0316,-0.12509 0.0705,0.0388 0.22697,0.36407 0.45682,0.95047 0.98152,2.63565 1.13753,3.65349 0.1883,1.22859 0.12957,2.16311 -0.28806,4.58351 -0.38247,2.21658 -0.44418,3.51301 -0.19442,4.08411 0.0847,0.19383 0.15411,0.35766 0.15411,0.36407 0,0.006 -0.41981,0.0113 -0.93291,0.0113 -0.864,0 -0.96894,0.0199 -1.42036,0.26998 -0.62313,0.34513 -1.14497,0.93903 -1.33935,1.52425 -0.31898,0.96038 0.0335,2.35638 0.75493,2.98979 0.59493,0.52237 1.00048,0.67044 1.84548,0.67387 0.42552,8e-4 0.90115,-0.0297 1.057,-0.0697 l 0.28333,-0.0727 -0.1666,0.48233 c -0.26535,0.76825 -0.23015,1.80118 0.0962,2.82493 0.47245,1.48185 0.58568,2.18403 0.591,3.6645 0.002,0.75715 -0.0356,1.43342 -0.0861,1.5183 -0.0642,0.10775 -0.0821,-0.0808 -0.0608,-0.63711 z"
       id="path1-4" />
  </g>
</svg>
