<?xml version="1.0" encoding="UTF-8" standalone="no"?>
<!-- Uploaded to: SVG Repo, www.svgrepo.com, Generator: SVG Repo Mixer Tools -->

<svg
   aria-label="Venmo"
   role="img"
   viewBox="0 0 512 512"
   version="1.1"
   id="svg1"
   sodipodi:docname="venmo-mark-white.svg"
   inkscape:version="1.3.2 (091e20e, 2023-11-25, custom)"
   xmlns:inkscape="http://www.inkscape.org/namespaces/inkscape"
   xmlns:sodipodi="http://sodipodi.sourceforge.net/DTD/sodipodi-0.dtd"
   xmlns="http://www.w3.org/2000/svg"
   xmlns:svg="http://www.w3.org/2000/svg">
  <defs
     id="defs1" />
  <sodipodi:namedview
     id="namedview1"
     pagecolor="#000000"
     bordercolor="#000000"
     borderopacity="0.25"
     inkscape:showpageshadow="2"
     inkscape:pageopacity="0.0"
     inkscape:pagecheckerboard="0"
     inkscape:deskcolor="#d1d1d1"
     inkscape:zoom="3.515625"
     inkscape:cx="256"
     inkscape:cy="256"
     inkscape:window-width="3840"
     inkscape:window-height="2054"
     inkscape:window-x="3829"
     inkscape:window-y="-11"
     inkscape:window-maximized="1"
     inkscape:current-layer="svg1" />
  <path
     id="rect1"
     style="fill:#ffffff"
     d="M 76.800781 0 C 34.253622 0 0 34.253622 0 76.800781 L 0 435.19922 C 0 477.74638 34.253622 512 76.800781 512 L 435.19922 512 C 477.74638 512 512 477.74638 512 435.19922 L 512 76.800781 C 512 34.253622 477.74638 0 435.19922 0 L 76.800781 0 z M 381.40039 105.30078 C 392.40038 123.40076 397.30078 141.99963 397.30078 165.59961 C 397.30078 240.69953 333.19956 338.30085 281.09961 406.80078 L 162.30078 406.80078 L 114.69922 121.80078 L 218.80078 111.90039 L 244.09961 314.69922 C 267.59959 276.29926 296.69922 215.99996 296.69922 175 C 296.69922 152.50002 292.80078 137.1996 286.80078 124.59961 L 381.40039 105.30078 z " />
</svg>
